<?xml version="1.0" standalone="no"?><!DOCTYPE svg PUBLIC "-//W3C//DTD SVG 1.1//EN" "http://www.w3.org/Graphics/SVG/1.1/DTD/svg11.dtd"><svg t="1584681873101" class="icon" viewBox="0 0 1024 1024" version="1.1" xmlns="http://www.w3.org/2000/svg" p-id="3570" width="24" height="24" xmlns:xlink="http://www.w3.org/1999/xlink"><defs><style type="text/css"></style></defs><path d="M357.224296 19.26637l0.720593 0.227556A47.407407 47.407407 0 0 1 398.222222 66.37037v891.25926a47.407407 47.407407 0 1 1-94.814815 0V171.33037l-127.867259 127.86726a47.407407 47.407407 0 0 1-67.034074-67.034074L309.627259 31.023407a47.369481 47.369481 0 0 1 44.316445-12.648296l3.280592 0.891259z" fill="#FD3760" p-id="3571"></path><path d="M673.185185 18.962963A47.407407 47.407407 0 0 1 720.592593 66.37037v786.280297l127.867259-127.848297a47.407407 47.407407 0 0 1 67.034074 67.034074L714.372741 992.976593a47.407407 47.407407 0 0 1-48.393482 11.510518A47.407407 47.407407 0 0 1 625.777778 957.62963v-891.25926A47.407407 47.407407 0 0 1 673.185185 18.962963z" fill="#9C9C9C" p-id="3572"></path></svg>